<?xml version="1.0" encoding="utf-8"?>
<svg width="46" height="47" viewBox="0 0 46 47" fill="none" xmlns="http://www.w3.org/2000/svg">
    <path d="M43.9907 10.4766C43.9907 10.4766 43.9907 28.6334 43.9004 31.9056C43.8101 35.1779 40.7395 36.7741 40.7395 36.7741C40.7395 36.7741 22.8581 44.8349 21.1422 45.5532C19.4263 46.2715 19.0651 44.4358 19.0651 44.4358C19.0651 44.4358 19.0651 27.2368 19.0651 25.8002C19.0651 23.8049 21.2777 22.927 21.2777 22.927C21.2777 22.927 41.1044 13.8741 41.733 13.5493C44.1262 12.3123 45.3806 9.21722 41.5975 7.60346C36.3595 5.36878 30.0378 6.80536 20.781 12.7512C16.6872 15.381 11.9757 16.5422 8.1827 15.9037C6.75218 15.6627 3.57687 14.8662 2.31253 12.7911C1.04819 10.7161 4.02842 9.4391 4.02842 9.4391L20.7521 2.08859C21.1142 1.92976 21.5441 1.92019 21.9008 2.08859C22.1925 2.22586 22.4517 2.48604 22.4517 2.97448C22.4517 4.09182 22.4517 11.8334 22.4517 11.8334" stroke="#4759DD" stroke-width="2.5" stroke-miterlimit="10"/>
</svg>
